<svg width="38" height="29" viewBox="0 0 38 29" fill="none" xmlns="http://www.w3.org/2000/svg">
<g clip-path="url(#clip0_18_46)">
<path d="M0.5 2.36525V9.1182C0.5 11.1749 3.00611 12.2719 4.53763 10.8322L11.8471 4.0792C13.4483 2.6052 12.404 0 10.2112 0H2.90169C1.57902 0 0.5 1.06265 0.5 2.36525Z" fill="white"/>
<path d="M35.0983 0H27.7888C25.6308 0 24.5517 2.6052 26.1529 4.0792L33.4624 10.8322C34.9939 12.2376 37.5 11.1749 37.5 9.1182V2.36525C37.5 1.06265 36.421 0 35.0983 0Z" fill="white"/>
<path d="M20.6533 16.4881L33.4624 28.3487C34.9939 29.7541 37.5 28.6914 37.5 26.6347V19.8132C37.5 19.1619 37.2215 18.5449 36.7342 18.0992L20.6533 3.1879C19.7135 2.33092 18.2865 2.33092 17.3467 3.1879L1.26576 18.0992C0.778457 18.5449 0.5 19.1619 0.5 19.8132V26.6347C0.5 28.6914 3.00611 29.7884 4.53763 28.3487L17.3467 16.4881C18.2865 15.6312 19.7135 15.6312 20.6533 16.4881Z" fill="white"/>
</g>
<defs>
<clipPath id="clip0_18_46">
<rect width="37" height="29" fill="white" transform="translate(0.5)"/>
</clipPath>
</defs>
</svg>
